<?xml version="1.0" encoding="UTF-8" standalone="no"?> <svg id="Layer_1" data-name="Layer 1" xmlns="http://www.w3.org/2000/svg" viewBox="0 0 48 48"><title>Phone</title><path d="M42.455,31.235l-2.267-2.266a5.274,5.274,0,0,0-7.459,0l-1.3,1.3a3.287,3.287,0,0,1-4.132.409A35.791,35.791,0,0,1,17.322,20.7a3.283,3.283,0,0,1,.409-4.132l1.3-1.3a5.274,5.274,0,0,0,0-7.459L16.765,5.545a5.279,5.279,0,0,0-7.459,0L6.8,8.054a9.535,9.535,0,0,0-2.769,7.484A21.294,21.294,0,0,0,8.232,26.7,65.334,65.334,0,0,0,21.3,39.769a21.3,21.3,0,0,0,11.162,4.2c.246.018.491.028.736.028a9.536,9.536,0,0,0,6.748-2.8l2.509-2.509a5.274,5.274,0,0,0,0-7.459Z"/></svg>