<svg version="1.1" id="Layer_1" xmlns="http://www.w3.org/2000/svg" xmlns:xlink="http://www.w3.org/1999/xlink" x="0px" y="0px" viewBox="0 0 28.1 28.1" enable-background="new 0 0 28.1 28.1" xml:space="preserve">
<g id="XMLID_2331_">
	<g id="XMLID_2332_">
		<path id="XMLID_2334_" fill-rule="evenodd" clip-rule="evenodd" fill="#2c2c2c" d="M27,13.3C26.8,6.5,21.1,1,14.2,1
			C7.3,1,1.7,6.4,1.4,13.1c0,0.2,0,0.4,0,0.6c0,2.4,0.7,4.6,1.8,6.5L1,27L8,24.8c1.8,1,3.9,1.6,6.2,1.6c7.1,0,12.8-5.7,12.8-12.7
			C27,13.6,27,13.5,27,13.3z M14.2,24.3c-2.2,0-4.2-0.6-5.9-1.8l-4.1,1.3l1.3-4c-1.3-1.8-2-3.9-2-6.2c0-0.3,0-0.7,0.1-1
			C4,7.2,8.6,3,14.2,3c5.6,0,10.3,4.3,10.7,9.8c0,0.3,0,0.6,0,0.8C24.9,19.5,20.1,24.3,14.2,24.3z"></path>
		<path id="XMLID_2333_" fill-rule="evenodd" clip-rule="evenodd" fill="#2c2c2c" d="M20.1,16.2c-0.3-0.2-1.9-0.9-2.1-1
			c-0.3-0.1-0.5-0.2-0.7,0.2c-0.2,0.3-0.8,1-1,1.2c-0.2,0.2-0.4,0.2-0.7,0.1c-0.3-0.2-1.3-0.5-2.5-1.5c-0.9-0.8-1.6-1.8-1.7-2.1
			c-0.2-0.3,0-0.5,0.1-0.6c0.1-0.1,0.3-0.4,0.5-0.5c0-0.1,0.1-0.1,0.1-0.1c0.1-0.1,0.1-0.2,0.2-0.4c0.1-0.2,0.1-0.4,0-0.5
			c-0.1-0.2-0.7-1.7-1-2.3c-0.3-0.6-0.5-0.5-0.7-0.5c-0.2,0-0.4,0-0.6,0C9.7,7.9,9.4,8,9.1,8.3C8.8,8.6,8,9.3,8,10.9
			c0,0.4,0.1,0.7,0.2,1.1c0.3,1.1,1,2,1.1,2.2c0.2,0.2,2.2,3.4,5.3,4.7c3.2,1.2,3.2,0.8,3.8,0.8c0.6,0,1.9-0.7,2.1-1.5
			c0.3-0.7,0.3-1.3,0.2-1.5C20.6,16.5,20.4,16.4,20.1,16.2z"></path>
	</g>
</g>
</svg>