<?xml version="1.0" encoding="UTF-8"?>
<!DOCTYPE svg PUBLIC "-//W3C//DTD SVG 1.1//EN" "http://www.w3.org/Graphics/SVG/1.1/DTD/svg11.dtd">
<!-- Creator: CorelDRAW -->
<svg xmlns="http://www.w3.org/2000/svg" xml:space="preserve" width="6.72in" height="6.72in" style="shape-rendering:geometricPrecision; text-rendering:geometricPrecision; image-rendering:optimizeQuality; fill-rule:evenodd; clip-rule:evenodd"
viewBox="0 0 6.72 6.72"
 xmlns:xlink="http://www.w3.org/1999/xlink">
 <defs>
  <style type="text/css">
   <![CDATA[
    .fil0 {fill:black}
    .fil1 {fill:#FFFFFE}
   ]]>
  </style>
 </defs>
 <rect class="fil0" width="6.72" height="6.72" rx="1.28" ry="1.28"/>
 <g id="Layer_x0020_1">
  <metadata id="CorelCorpID_0Corel-Layer"/>
  <g id="_348347344">
   <path id="_348348568" class="fil1" d="M2.30012 1.4499c0.125579,-0.238555 0.274972,-0.43428 0.441602,-0.57465 -0.147807,0.0367047 -0.290531,0.0862677 -0.426913,0.147441 -0.0168031,0.00754331 -0.0335079,0.0152559 -0.0501142,0.0231496 -0.309315,0.146957 -0.584441,0.354205 -0.810236,0.606524 0.216323,0.0827992 0.439488,0.151969 0.668535,0.2065 0.0519764,-0.147051 0.111354,-0.284016 0.177126,-0.408965z"/>
   <path id="_348348112" class="fil1" d="M4.42965 1.89587c-0.0474646,-0.131638 -0.101165,-0.25439 -0.160295,-0.366713 -0.237146,-0.450508 -0.559004,-0.729157 -0.909358,-0.729157 -0.350346,0 -0.672213,0.27865 -0.909358,0.729157 -0.0591299,0.112323 -0.112827,0.235075 -0.160291,0.366713 0.0139646,0.00285433 0.0279528,0.00565748 0.0419606,0.00840157 0.332642,0.0652087 0.676173,0.0993307 1.02769,0.0993307 0.35152,0 0.695051,-0.034122 1.0277,-0.0993307 0.0140079,-0.00274409 0.0279921,-0.00554724 0.0419567,-0.00840157z"/>
   <path id="_348348664" class="fil1" d="M5.26554 1.65237c-0.225795,-0.252319 -0.500921,-0.459567 -0.810232,-0.606524 -0.0141969,-0.00675591 -0.0284764,-0.0133701 -0.0428189,-0.0198622 -0.138587,-0.062685 -0.283764,-0.113366 -0.434213,-0.150724 0.16663,0.140366 0.316024,0.336091 0.441598,0.574646 0.0657717,0.124949 0.125154,0.261913 0.17713,0.408965 0.229043,-0.0545276 0.452213,-0.123701 0.668535,-0.2065z"/>
   <path id="_348348376" class="fil1" d="M5.91602 3.27475c-0.018252,-0.558831 -0.215311,-1.07231 -0.535736,-1.48493 -0.236748,0.0935669 -0.480551,0.171118 -0.730173,0.231374 0.112366,0.372063 0.179413,0.798945 0.18689,1.25356l1.07902 0z"/>
   <path id="_348348040" class="fil1" d="M4.66649 3.27475c-0.00748425,-0.443004 -0.0730984,-0.857311 -0.182744,-1.21614 -0.0211024,0.0043937 -0.0422441,0.00866929 -0.0634213,0.0128228 -0.343811,0.0673976 -0.698264,0.102661 -1.06033,0.102661 -0.362067,0 -0.716516,-0.0352638 -1.06032,-0.102661 -0.021185,-0.00415354 -0.0423268,-0.00842913 -0.0634291,-0.0128228 -0.109646,0.358827 -0.17526,0.773134 -0.182744,1.21614l2.61299 0z"/>
   <path id="_348348184" class="fil1" d="M1.88299 3.27475c0.00747638,-0.45461 0.0745236,-0.881492 0.186886,-1.25356 -0.249622,-0.0602598 -0.493421,-0.137811 -0.730165,-0.231378 -0.320425,0.412622 -0.517488,0.926102 -0.53574,1.48493l1.07902 0z"/>
   <path id="_348347176" class="fil1" d="M2.06988 4.6988c-0.112362,-0.372063 -0.179409,-0.798945 -0.186886,-1.25356l-1.07902 0c0.018252,0.558831 0.215315,1.07231 0.53574,1.48493 0.236744,-0.0935669 0.480547,-0.171118 0.730165,-0.231378z"/>
   <path id="_348347800" class="fil1" d="M4.48375 4.66139c0.109646,-0.358831 0.17526,-0.773138 0.182744,-1.21614l-2.61299 0c0.00748425,0.443008 0.0730984,0.857315 0.182744,1.21614 0.0211063,-0.0043937 0.0422441,-0.00866929 0.0634291,-0.0128228 0.343803,-0.0673976 0.698252,-0.102661 1.06032,-0.102661 0.362067,0 0.71652,0.0352638 1.06033,0.102661 0.0211772,0.00415354 0.0423189,0.00842913 0.0634213,0.0128228z"/>
   <path id="_348347632" class="fil1" d="M5.38029 4.93018c0.320425,-0.412622 0.517484,-0.926098 0.535736,-1.48493l-1.07902 0c-0.00747638,0.45461 -0.0745236,0.881492 -0.18689,1.25356 0.249622,0.0602559 0.493425,0.137807 0.730173,0.231374z"/>
   <path id="_348347560" class="fil1" d="M4.26935 5.19084c0.0591299,-0.112323 0.112831,-0.235075 0.160295,-0.366713 -0.0139646,-0.00285433 -0.0279488,-0.00565748 -0.0419567,-0.00840157 -0.332646,-0.0652087 -0.676177,-0.0993307 -1.0277,-0.0993307 -0.351516,0 -0.695047,0.034122 -1.02769,0.0993307 -0.0140079,0.00274409 -0.0279961,0.00554724 -0.0419606,0.00840157 0.0474646,0.131638 0.101161,0.25439 0.160291,0.366713 0.237146,0.450508 0.559012,0.729157 0.909358,0.729157 0.350354,0 0.672213,-0.27865 0.909358,-0.729157z"/>
   <path id="_348347464" class="fil1" d="M2.74172 5.84475c-0.16663,-0.14037 -0.316024,-0.336094 -0.441602,-0.57465 -0.0657717,-0.124949 -0.12515,-0.261913 -0.177126,-0.408965 -0.229047,0.0545315 -0.452213,0.123701 -0.668535,0.2065 0.225795,0.252319 0.500921,0.459567 0.810236,0.606524 0.0166024,0.00789764 0.033311,0.0156102 0.0501142,0.0231496 0.136382,0.0611732 0.279106,0.110736 0.426913,0.147441z"/>
   <path id="_348347512" class="fil1" d="M4.45531 5.67416c0.309311,-0.146957 0.584437,-0.354205 0.810232,-0.606524 -0.216323,-0.0827992 -0.439492,-0.151972 -0.668535,-0.2065 -0.0519764,0.147051 -0.111358,0.284016 -0.17713,0.408965 -0.125579,0.238555 -0.274972,0.43428 -0.441598,0.574646 0.150449,-0.0373583 0.295626,-0.0880433 0.434213,-0.150724 0.0143425,-0.00649606 0.0286142,-0.0131142 0.0428189,-0.0198622z"/>
  </g>
 </g>
</svg>
