<?xml version="1.0" encoding="UTF-8" standalone="no"?> <svg xmlns="http://www.w3.org/2000/svg" viewBox="0 0 271.03 271.03"><defs><style>.cls-1{fill:#231f20;stroke:#fff;stroke-miterlimit:10;}.cls-2{fill:#fff;}</style></defs><title>Asset 9</title><g id="Layer_2" data-name="Layer 2"><g id="Capa_1" data-name="Capa 1"><rect class="cls-1" x="0.5" y="0.5" width="270.03" height="270.03" rx="46.5"/><path class="cls-2" d="M137.62,220.13,92.29,142.89a63.85,63.85,0,0,1,1.2-61.28c9.34-16.16,24.6-25.79,41.86-26.42.66,0,1.33,0,2,0A53.67,53.67,0,0,1,161.68,61c12.62,6.35,21.89,18,26.08,32.71a59.64,59.64,0,0,1-6.23,47.39ZM97.57,140l39.91,68L176.38,138A53.66,53.66,0,0,0,182,95.3c-3.73-13.11-11.9-23.4-23-29a47.61,47.61,0,0,0-21.63-5.16c-.6,0-1.19,0-1.78,0-15.15.56-28.6,9.1-36.89,23.44A57.79,57.79,0,0,0,97.57,140Z"/><path class="cls-2" d="M137.55,136.8a22.75,22.75,0,1,1,22.75-22.75A22.77,22.77,0,0,1,137.55,136.8Zm0-39.5a16.75,16.75,0,1,0,16.75,16.75A16.78,16.78,0,0,0,137.55,97.3Z"/></g></g></svg>